# MagicaVoxel @ Ephtracy

# group
g female_mecha_bicep

# material
mtllib female_mecha_bicep.mtl
usemtl palette

# normals
vn -1 0 0
vn 1 0 0
vn 0 0 1
vn 0 0 -1
vn 0 -1 0
vn 0 1 0

# texcoords
vt 0.958984 0.5
vt 0.970703 0.5

# verts
v -5 1 4
v -5 1 -2
v -5 1 -3
v -5 2 5
v -5 2 4
v -5 5 1
v -5 5 -1
v -5 6 5
v -5 6 4
v -5 6 3
v -5 7 -2
v -5 7 -3
v -5 7 -4
v -5 10 5
v -5 10 4
v -5 10 3
v -5 12 5
v -5 12 4
v -5 12 3
v -5 13 1
v -5 13 -1
v -5 14 5
v -5 14 4
v -5 14 3
v -5 16 5
v -5 16 4
v -5 16 3
v -5 17 5
v -5 17 4
v -5 17 3
v -5 18 -1
v -5 18 -3
v -5 19 5
v -5 19 4
v -5 19 3
v -5 20 5
v -5 20 4
v -5 20 3
v -5 21 -1
v -5 21 -3
v -5 24 5
v -5 24 1
v -5 25 4
v -5 25 1
v -5 27 -1
v -5 27 -2
v -5 27 -3
v -5 27 -4
v -5 28 4
v -5 28 3
v -5 28 2
v -5 30 3
v -5 30 2
v -5 30 -1
v -5 30 -2
v -4 1 -3
v -4 1 -5
v -4 5 1
v -4 5 -1
v -4 6 -3
v -4 6 -4
v -4 6 -5
v -4 7 -3
v -4 7 -4
v -4 10 -4
v -4 10 -5
v -4 13 1
v -4 13 -1
v -4 16 5
v -4 16 4
v -4 17 5
v -4 17 4
v -4 18 -1
v -4 18 -3
v -4 19 5
v -4 19 4
v -4 20 5
v -4 20 4
v -4 21 -1
v -4 21 -3
v -4 24 4
v -4 24 1
v -4 25 5
v -4 25 4
v -4 25 1
v -4 27 -2
v -4 27 -3
v -4 27 -4
v -4 27 -5
v -4 28 5
v -4 28 4
v -4 30 -2
v -4 30 -3
v -3 0 4
v -3 0 -4
v -3 1 5
v -3 1 4
v -3 1 -4
v -3 2 5
v -3 2 4
v -3 6 5
v -3 6 4
v -3 6 -4
v -3 6 -5
v -3 10 5
v -3 10 4
v -3 10 -4
v -3 10 -5
v -3 27 -3
v -3 27 -4
v -3 28 5
v -3 28 3
v -3 30 5
v -3 30 3
v -3 30 -3
v -3 30 -4
v -2 0 5
v -2 0 4
v -2 1 5
v -2 1 4
v -2 12 5
v -2 12 4
v -2 14 5
v -2 14 4
v -2 27 -4
v -2 27 -5
v -2 30 -4
v -2 30 -5
v -1 24 5
v -1 24 4
v -1 25 5
v -1 25 4
v 1 3 5
v 1 3 3
v 1 5 5
v 1 5 3
v -1 3 5
v -1 3 3
v -1 5 5
v -1 5 3
v 1 24 5
v 1 24 4
v 1 25 5
v 1 25 4
v 2 0 5
v 2 0 4
v 2 1 5
v 2 1 4
v 2 12 5
v 2 12 4
v 2 14 5
v 2 14 4
v 2 27 -4
v 2 27 -5
v 2 30 -4
v 2 30 -5
v 3 0 4
v 3 0 -4
v 3 1 5
v 3 1 4
v 3 1 -4
v 3 2 5
v 3 2 4
v 3 6 5
v 3 6 4
v 3 6 -4
v 3 6 -5
v 3 10 5
v 3 10 4
v 3 10 -4
v 3 10 -5
v 3 27 -3
v 3 27 -4
v 3 28 5
v 3 28 3
v 3 30 5
v 3 30 3
v 3 30 -3
v 3 30 -4
v 4 1 -3
v 4 1 -5
v 4 5 1
v 4 5 -1
v 4 6 -3
v 4 6 -4
v 4 6 -5
v 4 7 -3
v 4 7 -4
v 4 10 -4
v 4 10 -5
v 4 13 1
v 4 13 -1
v 4 16 5
v 4 16 4
v 4 17 5
v 4 17 4
v 4 18 -1
v 4 18 -3
v 4 19 5
v 4 19 4
v 4 20 5
v 4 20 4
v 4 21 -1
v 4 21 -3
v 4 24 4
v 4 24 1
v 4 25 5
v 4 25 4
v 4 25 1
v 4 27 -2
v 4 27 -3
v 4 27 -4
v 4 27 -5
v 4 28 5
v 4 28 4
v 4 30 -2
v 4 30 -3
v 5 1 4
v 5 1 -2
v 5 1 -3
v 5 2 5
v 5 2 4
v 5 5 1
v 5 5 -1
v 5 6 5
v 5 6 4
v 5 6 3
v 5 7 -2
v 5 7 -3
v 5 7 -4
v 5 10 5
v 5 10 4
v 5 10 3
v 5 12 5
v 5 12 4
v 5 12 3
v 5 13 1
v 5 13 -1
v 5 14 5
v 5 14 4
v 5 14 3
v 5 16 5
v 5 16 4
v 5 16 3
v 5 17 5
v 5 17 4
v 5 17 3
v 5 18 -1
v 5 18 -3
v 5 19 5
v 5 19 4
v 5 19 3
v 5 20 5
v 5 20 4
v 5 20 3
v 5 21 -1
v 5 21 -3
v 5 24 5
v 5 24 1
v 5 25 4
v 5 25 1
v 5 27 -1
v 5 27 -2
v 5 27 -3
v 5 27 -4
v 5 28 4
v 5 28 3
v 5 28 2
v 5 30 3
v 5 30 2
v 5 30 -1
v 5 30 -2
v -5 2 5
v -5 6 5
v -5 10 5
v -5 12 5
v -5 14 5
v -5 16 5
v -5 17 5
v -5 19 5
v -5 20 5
v -5 24 5
v -4 16 5
v -4 17 5
v -4 19 5
v -4 20 5
v -4 25 5
v -4 28 5
v -3 1 5
v -3 2 5
v -3 6 5
v -3 10 5
v -3 16 5
v -3 17 5
v -3 19 5
v -3 20 5
v -3 28 5
v -3 30 5
v -2 0 5
v -2 1 5
v -2 12 5
v -2 14 5
v -2 28 5
v -2 30 5
v -1 3 5
v -1 5 5
v -1 24 5
v -1 25 5
v 1 3 5
v 1 5 5
v 1 24 5
v 1 25 5
v 2 0 5
v 2 1 5
v 2 12 5
v 2 14 5
v 2 28 5
v 2 30 5
v 3 1 5
v 3 2 5
v 3 6 5
v 3 10 5
v 3 16 5
v 3 17 5
v 3 19 5
v 3 20 5
v 3 28 5
v 3 30 5
v 4 16 5
v 4 17 5
v 4 19 5
v 4 20 5
v 4 25 5
v 4 28 5
v 5 2 5
v 5 6 5
v 5 10 5
v 5 12 5
v 5 14 5
v 5 16 5
v 5 17 5
v 5 19 5
v 5 20 5
v 5 24 5
v -5 1 4
v -5 2 4
v -5 6 4
v -5 10 4
v -5 12 4
v -5 14 4
v -5 16 4
v -5 17 4
v -5 19 4
v -5 20 4
v -5 25 4
v -5 28 4
v -4 16 4
v -4 17 4
v -4 19 4
v -4 20 4
v -4 24 4
v -4 25 4
v -4 28 4
v -3 0 4
v -3 1 4
v -3 2 4
v -3 6 4
v -3 10 4
v -2 0 4
v -2 1 4
v -2 12 4
v -2 14 4
v -1 24 4
v -1 25 4
v 1 24 4
v 1 25 4
v 2 0 4
v 2 1 4
v 2 12 4
v 2 14 4
v 3 0 4
v 3 1 4
v 3 2 4
v 3 6 4
v 3 10 4
v 4 16 4
v 4 17 4
v 4 19 4
v 4 20 4
v 4 24 4
v 4 25 4
v 4 28 4
v 5 1 4
v 5 2 4
v 5 6 4
v 5 10 4
v 5 12 4
v 5 14 4
v 5 16 4
v 5 17 4
v 5 19 4
v 5 20 4
v 5 25 4
v 5 28 4
v -5 28 3
v -5 30 3
v -3 28 3
v -3 30 3
v -1 3 3
v -1 5 3
v 1 3 3
v 1 5 3
v 3 28 3
v 3 30 3
v 5 28 3
v 5 30 3
v -5 24 1
v -5 25 1
v -4 24 1
v -4 25 1
v 4 24 1
v 4 25 1
v 5 24 1
v 5 25 1
v -5 5 -1
v -5 13 -1
v -4 5 -1
v -4 13 -1
v 4 5 -1
v 4 13 -1
v 5 5 -1
v 5 13 -1
v -5 18 -3
v -5 21 -3
v -4 18 -3
v -4 21 -3
v 4 18 -3
v 4 21 -3
v 5 18 -3
v 5 21 -3
v -5 5 1
v -5 13 1
v -4 5 1
v -4 13 1
v 4 5 1
v 4 13 1
v 5 5 1
v 5 13 1
v -5 18 -1
v -5 21 -1
v -4 18 -1
v -4 21 -1
v 4 18 -1
v 4 21 -1
v 5 18 -1
v 5 21 -1
v -5 27 -2
v -5 30 -2
v -4 27 -2
v -4 30 -2
v 4 27 -2
v 4 30 -2
v 5 27 -2
v 5 30 -2
v -5 1 -3
v -5 7 -3
v -4 1 -3
v -4 6 -3
v -4 7 -3
v -4 27 -3
v -4 30 -3
v -3 27 -3
v -3 30 -3
v 3 27 -3
v 3 30 -3
v 4 1 -3
v 4 6 -3
v 4 7 -3
v 4 27 -3
v 4 30 -3
v 5 1 -3
v 5 7 -3
v -5 7 -4
v -5 27 -4
v -4 6 -4
v -4 7 -4
v -4 10 -4
v -4 27 -4
v -3 0 -4
v -3 1 -4
v -3 6 -4
v -3 10 -4
v -3 27 -4
v -3 30 -4
v -2 27 -4
v -2 30 -4
v 2 27 -4
v 2 30 -4
v 3 0 -4
v 3 1 -4
v 3 6 -4
v 3 10 -4
v 3 27 -4
v 3 30 -4
v 4 6 -4
v 4 7 -4
v 4 10 -4
v 4 27 -4
v 5 7 -4
v 5 27 -4
v -4 1 -5
v -4 6 -5
v -4 10 -5
v -4 27 -5
v -3 6 -5
v -3 10 -5
v -2 27 -5
v -2 30 -5
v -1 27 -5
v -1 30 -5
v 1 27 -5
v 1 30 -5
v 2 27 -5
v 2 30 -5
v 3 6 -5
v 3 10 -5
v 4 1 -5
v 4 6 -5
v 4 10 -5
v 4 27 -5
v -2 0 5
v 2 0 5
v -3 0 4
v -2 0 4
v 2 0 4
v 3 0 4
v -3 0 -4
v 3 0 -4
v -3 1 5
v -2 1 5
v 2 1 5
v 3 1 5
v -5 1 4
v -3 1 4
v -2 1 4
v 2 1 4
v 3 1 4
v 5 1 4
v -5 1 -2
v -4 1 -2
v 4 1 -2
v 5 1 -2
v -5 1 -3
v -4 1 -3
v 4 1 -3
v 5 1 -3
v -3 1 -4
v 3 1 -4
v -4 1 -5
v 4 1 -5
v -5 2 5
v -3 2 5
v 3 2 5
v 5 2 5
v -5 2 4
v -3 2 4
v 3 2 4
v 5 2 4
v -1 5 5
v 1 5 5
v -1 5 3
v 1 5 3
v -5 7 -3
v -4 7 -3
v 4 7 -3
v 5 7 -3
v -5 7 -4
v -4 7 -4
v 4 7 -4
v 5 7 -4
v -5 10 5
v -3 10 5
v 3 10 5
v 5 10 5
v -5 10 4
v -3 10 4
v 3 10 4
v 5 10 4
v -4 10 -4
v -3 10 -4
v 3 10 -4
v 4 10 -4
v -4 10 -5
v -3 10 -5
v 3 10 -5
v 4 10 -5
v -5 13 1
v -4 13 1
v 4 13 1
v 5 13 1
v -5 13 -1
v -4 13 -1
v 4 13 -1
v 5 13 -1
v -5 14 5
v -2 14 5
v 2 14 5
v 5 14 5
v -5 14 4
v -2 14 4
v 2 14 4
v 5 14 4
v -5 17 5
v -4 17 5
v 4 17 5
v 5 17 5
v -5 17 4
v -4 17 4
v 4 17 4
v 5 17 4
v -5 20 5
v -4 20 5
v 4 20 5
v 5 20 5
v -5 20 4
v -4 20 4
v 4 20 4
v 5 20 4
v -5 21 -1
v -4 21 -1
v 4 21 -1
v 5 21 -1
v -5 21 -3
v -4 21 -3
v 4 21 -3
v 5 21 -3
v -4 25 5
v -1 25 5
v 1 25 5
v 4 25 5
v -5 25 4
v -4 25 4
v -1 25 4
v 1 25 4
v 4 25 4
v 5 25 4
v -5 25 1
v -4 25 1
v 4 25 1
v 5 25 1
v -1 3 5
v 1 3 5
v -1 3 3
v 1 3 3
v -5 5 1
v -4 5 1
v 4 5 1
v 5 5 1
v -5 5 -1
v -4 5 -1
v 4 5 -1
v 5 5 -1
v -5 6 5
v -3 6 5
v 3 6 5
v 5 6 5
v -5 6 4
v -3 6 4
v 3 6 4
v 5 6 4
v -4 6 -4
v -3 6 -4
v 3 6 -4
v 4 6 -4
v -4 6 -5
v -3 6 -5
v 3 6 -5
v 4 6 -5
v -5 12 5
v -2 12 5
v 2 12 5
v 5 12 5
v -5 12 4
v -2 12 4
v 2 12 4
v 5 12 4
v -5 16 5
v -4 16 5
v 4 16 5
v 5 16 5
v -5 16 4
v -4 16 4
v 4 16 4
v 5 16 4
v -5 18 -1
v -4 18 -1
v 4 18 -1
v 5 18 -1
v -5 18 -3
v -4 18 -3
v 4 18 -3
v 5 18 -3
v -5 19 5
v -4 19 5
v 4 19 5
v 5 19 5
v -5 19 4
v -4 19 4
v 4 19 4
v 5 19 4
v -5 24 5
v -1 24 5
v 1 24 5
v 5 24 5
v -4 24 4
v -1 24 4
v 1 24 4
v 4 24 4
v -5 24 1
v -4 24 1
v 4 24 1
v 5 24 1
v -5 27 -2
v -4 27 -2
v 4 27 -2
v 5 27 -2
v -5 27 -3
v -4 27 -3
v -3 27 -3
v 3 27 -3
v 4 27 -3
v 5 27 -3
v -5 27 -4
v -4 27 -4
v -3 27 -4
v -2 27 -4
v 2 27 -4
v 3 27 -4
v 4 27 -4
v 5 27 -4
v -4 27 -5
v -2 27 -5
v 2 27 -5
v 4 27 -5
v -4 28 5
v -3 28 5
v 3 28 5
v 4 28 5
v -5 28 4
v -4 28 4
v 4 28 4
v 5 28 4
v -5 28 3
v -3 28 3
v 3 28 3
v 5 28 3
v -3 30 5
v -2 30 5
v 2 30 5
v 3 30 5
v -5 30 3
v -3 30 3
v -2 30 3
v 2 30 3
v 3 30 3
v 5 30 3
v -5 30 2
v -3 30 2
v 3 30 2
v 5 30 2
v -5 30 -1
v -4 30 -1
v 4 30 -1
v 5 30 -1
v -5 30 -2
v -4 30 -2
v -3 30 -2
v 3 30 -2
v 4 30 -2
v 5 30 -2
v -4 30 -3
v -3 30 -3
v -2 30 -3
v 2 30 -3
v 3 30 -3
v 4 30 -3
v -3 30 -4
v -2 30 -4
v -1 30 -4
v 1 30 -4
v 2 30 -4
v 3 30 -4
v -2 30 -5
v -1 30 -5
v 1 30 -5
v 2 30 -5

# faces
f 5/2/1 2/2/1 1/2/1
f 6/2/1 2/2/1 5/2/1
f 6/2/1 5/2/1 4/2/1
f 7/2/1 2/2/1 6/2/1
f 8/2/1 6/2/1 4/2/1
f 9/2/1 6/2/1 8/2/1
f 10/2/1 6/2/1 9/2/1
f 11/1/1 3/1/1 2/1/1
f 11/2/1 2/2/1 7/2/1
f 12/1/1 3/1/1 11/1/1
f 15/1/1 10/1/1 9/1/1
f 16/2/1 6/2/1 10/2/1
f 16/1/1 10/1/1 15/1/1
f 17/2/1 15/2/1 14/2/1
f 17/2/1 16/2/1 15/2/1
f 18/2/1 16/2/1 17/2/1
f 19/2/1 6/2/1 16/2/1
f 19/2/1 16/2/1 18/2/1
f 20/2/1 6/2/1 19/2/1
f 21/2/1 11/2/1 7/2/1
f 21/2/1 12/2/1 11/2/1
f 23/1/1 19/1/1 18/1/1
f 24/2/1 21/2/1 20/2/1
f 24/2/1 20/2/1 19/2/1
f 24/1/1 19/1/1 23/1/1
f 25/2/1 23/2/1 22/2/1
f 25/2/1 24/2/1 23/2/1
f 26/2/1 24/2/1 25/2/1
f 27/2/1 21/2/1 24/2/1
f 27/2/1 24/2/1 26/2/1
f 29/1/1 27/1/1 26/1/1
f 30/2/1 21/2/1 27/2/1
f 30/1/1 27/1/1 29/1/1
f 31/2/1 29/2/1 28/2/1
f 31/2/1 21/2/1 30/2/1
f 31/2/1 30/2/1 29/2/1
f 31/2/1 12/2/1 21/2/1
f 32/1/1 13/1/1 12/1/1
f 32/2/1 12/2/1 31/2/1
f 33/2/1 31/2/1 28/2/1
f 34/2/1 31/2/1 33/2/1
f 35/2/1 31/2/1 34/2/1
f 37/1/1 35/1/1 34/1/1
f 38/2/1 31/2/1 35/2/1
f 38/1/1 35/1/1 37/1/1
f 39/2/1 37/2/1 36/2/1
f 39/2/1 31/2/1 38/2/1
f 39/2/1 38/2/1 37/2/1
f 40/1/1 13/1/1 32/1/1
f 41/2/1 39/2/1 36/2/1
f 41/2/1 40/2/1 39/2/1
f 42/2/1 40/2/1 41/2/1
f 44/2/1 40/2/1 42/2/1
f 45/2/1 40/2/1 44/2/1
f 45/2/1 44/2/1 43/2/1
f 46/2/1 40/2/1 45/2/1
f 47/1/1 13/1/1 40/1/1
f 47/2/1 40/2/1 46/2/1
f 48/1/1 13/1/1 47/1/1
f 49/2/1 45/2/1 43/2/1
f 50/2/1 45/2/1 49/2/1
f 51/2/1 45/2/1 50/2/1
f 52/1/1 51/1/1 50/1/1
f 53/2/1 45/2/1 51/2/1
f 53/1/1 51/1/1 52/1/1
f 54/1/1 46/1/1 45/1/1
f 54/2/1 45/2/1 53/2/1
f 55/1/1 46/1/1 54/1/1
f 60/2/1 57/2/1 56/2/1
f 61/2/1 57/2/1 60/2/1
f 62/2/1 57/2/1 61/2/1
f 63/1/1 61/1/1 60/1/1
f 64/1/1 61/1/1 63/1/1
f 67/1/1 59/1/1 58/1/1
f 68/1/1 59/1/1 67/1/1
f 71/1/1 70/1/1 69/1/1
f 72/1/1 70/1/1 71/1/1
f 77/1/1 76/1/1 75/1/1
f 78/1/1 76/1/1 77/1/1
f 79/1/1 74/1/1 73/1/1
f 80/1/1 74/1/1 79/1/1
f 84/1/1 82/1/1 81/1/1
f 85/1/1 82/1/1 84/1/1
f 88/2/1 66/2/1 65/2/1
f 89/2/1 66/2/1 88/2/1
f 90/2/1 84/2/1 83/2/1
f 91/2/1 84/2/1 90/2/1
f 92/1/1 87/1/1 86/1/1
f 93/1/1 87/1/1 92/1/1
f 97/2/1 95/2/1 94/2/1
f 98/2/1 95/2/1 97/2/1
f 99/2/1 97/2/1 96/2/1
f 100/2/1 97/2/1 99/2/1
f 105/2/1 102/2/1 101/2/1
f 106/2/1 102/2/1 105/2/1
f 107/2/1 104/2/1 103/2/1
f 108/2/1 104/2/1 107/2/1
f 113/1/1 112/1/1 111/1/1
f 114/1/1 112/1/1 113/1/1
f 115/1/1 110/1/1 109/1/1
f 116/1/1 110/1/1 115/1/1
f 119/2/1 118/2/1 117/2/1
f 120/2/1 118/2/1 119/2/1
f 123/2/1 122/2/1 121/2/1
f 124/2/1 122/2/1 123/2/1
f 127/1/1 126/1/1 125/1/1
f 128/1/1 126/1/1 127/1/1
f 131/2/1 130/2/1 129/2/1
f 132/2/1 130/2/1 131/2/1
f 135/2/1 134/2/1 133/2/1
f 136/2/1 134/2/1 135/2/1
f 137/2/2 138/2/2 139/2/2
f 139/2/2 138/2/2 140/2/2
f 141/2/2 142/2/2 143/2/2
f 143/2/2 142/2/2 144/2/2
f 145/2/2 146/2/2 147/2/2
f 147/2/2 146/2/2 148/2/2
f 149/2/2 150/2/2 151/2/2
f 151/2/2 150/2/2 152/2/2
f 153/1/2 154/1/2 155/1/2
f 155/1/2 154/1/2 156/1/2
f 157/2/2 158/2/2 160/2/2
f 160/2/2 158/2/2 161/2/2
f 159/2/2 160/2/2 162/2/2
f 162/2/2 160/2/2 163/2/2
f 164/2/2 165/2/2 168/2/2
f 168/2/2 165/2/2 169/2/2
f 166/2/2 167/2/2 170/2/2
f 170/2/2 167/2/2 171/2/2
f 174/1/2 175/1/2 176/1/2
f 176/1/2 175/1/2 177/1/2
f 172/1/2 173/1/2 178/1/2
f 178/1/2 173/1/2 179/1/2
f 180/2/2 181/2/2 184/2/2
f 184/2/2 181/2/2 185/2/2
f 185/2/2 181/2/2 186/2/2
f 184/1/2 185/1/2 187/1/2
f 187/1/2 185/1/2 188/1/2
f 182/1/2 183/1/2 191/1/2
f 191/1/2 183/1/2 192/1/2
f 193/1/2 194/1/2 195/1/2
f 195/1/2 194/1/2 196/1/2
f 199/1/2 200/1/2 201/1/2
f 201/1/2 200/1/2 202/1/2
f 197/1/2 198/1/2 203/1/2
f 203/1/2 198/1/2 204/1/2
f 205/1/2 206/1/2 208/1/2
f 208/1/2 206/1/2 209/1/2
f 189/2/2 190/2/2 212/2/2
f 212/2/2 190/2/2 213/2/2
f 207/2/2 208/2/2 214/2/2
f 214/2/2 208/2/2 215/2/2
f 210/1/2 211/1/2 216/1/2
f 216/1/2 211/1/2 217/1/2
f 218/2/2 219/2/2 222/2/2
f 222/2/2 219/2/2 223/2/2
f 221/2/2 222/2/2 223/2/2
f 223/2/2 219/2/2 224/2/2
f 221/2/2 223/2/2 225/2/2
f 225/2/2 223/2/2 226/2/2
f 226/2/2 223/2/2 227/2/2
f 219/1/2 220/1/2 228/1/2
f 224/2/2 219/2/2 228/2/2
f 228/1/2 220/1/2 229/1/2
f 226/1/2 227/1/2 232/1/2
f 227/2/2 223/2/2 233/2/2
f 232/1/2 227/1/2 233/1/2
f 231/2/2 232/2/2 234/2/2
f 232/2/2 233/2/2 234/2/2
f 234/2/2 233/2/2 235/2/2
f 233/2/2 223/2/2 236/2/2
f 235/2/2 233/2/2 236/2/2
f 236/2/2 223/2/2 237/2/2
f 224/2/2 228/2/2 238/2/2
f 228/2/2 229/2/2 238/2/2
f 235/1/2 236/1/2 240/1/2
f 237/2/2 238/2/2 241/2/2
f 236/2/2 237/2/2 241/2/2
f 240/1/2 236/1/2 241/1/2
f 239/2/2 240/2/2 242/2/2
f 240/2/2 241/2/2 242/2/2
f 242/2/2 241/2/2 243/2/2
f 241/2/2 238/2/2 244/2/2
f 243/2/2 241/2/2 244/2/2
f 243/1/2 244/1/2 246/1/2
f 244/2/2 238/2/2 247/2/2
f 246/1/2 244/1/2 247/1/2
f 245/2/2 246/2/2 248/2/2
f 247/2/2 238/2/2 248/2/2
f 246/2/2 247/2/2 248/2/2
f 238/2/2 229/2/2 248/2/2
f 229/1/2 230/1/2 249/1/2
f 248/2/2 229/2/2 249/2/2
f 245/2/2 248/2/2 250/2/2
f 250/2/2 248/2/2 251/2/2
f 251/2/2 248/2/2 252/2/2
f 251/1/2 252/1/2 254/1/2
f 252/2/2 248/2/2 255/2/2
f 254/1/2 252/1/2 255/1/2
f 253/2/2 254/2/2 256/2/2
f 255/2/2 248/2/2 256/2/2
f 254/2/2 255/2/2 256/2/2
f 249/1/2 230/1/2 257/1/2
f 253/2/2 256/2/2 258/2/2
f 256/2/2 257/2/2 258/2/2
f 258/2/2 257/2/2 259/2/2
f 259/2/2 257/2/2 261/2/2
f 261/2/2 257/2/2 262/2/2
f 260/2/2 261/2/2 262/2/2
f 262/2/2 257/2/2 263/2/2
f 257/1/2 230/1/2 264/1/2
f 263/2/2 257/2/2 264/2/2
f 264/1/2 230/1/2 265/1/2
f 260/2/2 262/2/2 266/2/2
f 266/2/2 262/2/2 267/2/2
f 267/2/2 262/2/2 268/2/2
f 267/1/2 268/1/2 269/1/2
f 268/2/2 262/2/2 270/2/2
f 269/1/2 268/1/2 270/1/2
f 262/1/2 263/1/2 271/1/2
f 270/2/2 262/2/2 271/2/2
f 271/1/2 263/1/2 272/1/2
f 283/2/3 278/2/3 277/2/3
f 284/2/3 280/2/3 279/2/3
f 285/2/3 280/2/3 284/2/3
f 286/2/3 282/2/3 281/2/3
f 290/2/3 274/2/3 273/2/3
f 291/2/3 274/2/3 290/2/3
f 292/2/3 276/2/3 275/2/3
f 293/2/3 283/2/3 277/2/3
f 293/1/3 284/1/3 283/1/3
f 294/2/3 285/2/3 284/2/3
f 294/1/3 284/1/3 293/1/3
f 295/1/3 286/1/3 285/1/3
f 295/2/3 285/2/3 294/2/3
f 296/2/3 282/2/3 286/2/3
f 296/1/3 286/1/3 295/1/3
f 297/2/3 288/2/3 287/2/3
f 300/2/3 291/2/3 290/2/3
f 300/2/3 292/2/3 291/2/3
f 300/2/3 290/2/3 289/2/3
f 301/2/3 276/2/3 292/2/3
f 301/2/3 292/2/3 300/2/3
f 302/2/3 293/2/3 277/2/3
f 302/2/3 295/2/3 294/2/3
f 302/2/3 294/2/3 293/2/3
f 302/2/3 296/2/3 295/2/3
f 303/1/3 298/1/3 297/1/3
f 303/2/3 297/2/3 287/2/3
f 304/1/3 298/1/3 303/1/3
f 305/2/3 302/2/3 301/2/3
f 305/2/3 301/2/3 300/2/3
f 305/2/3 300/2/3 299/2/3
f 306/2/3 302/2/3 305/2/3
f 307/2/3 282/2/3 296/2/3
f 307/2/3 302/2/3 306/2/3
f 307/2/3 296/2/3 302/2/3
f 308/2/3 304/2/3 303/2/3
f 308/2/3 303/2/3 287/2/3
f 309/2/3 305/2/3 299/2/3
f 310/2/3 308/2/3 307/2/3
f 310/2/3 307/2/3 306/2/3
f 311/2/3 308/2/3 310/2/3
f 312/2/3 304/2/3 308/2/3
f 312/2/3 308/2/3 311/2/3
f 313/2/3 309/2/3 299/2/3
f 313/2/3 311/2/3 310/2/3
f 313/2/3 310/2/3 309/2/3
f 314/2/3 311/2/3 313/2/3
f 315/2/3 311/2/3 314/2/3
f 316/2/3 311/2/3 315/2/3
f 317/2/3 304/2/3 312/2/3
f 318/2/3 304/2/3 317/2/3
f 319/2/3 315/2/3 314/2/3
f 320/2/3 315/2/3 319/2/3
f 321/2/3 315/2/3 320/2/3
f 322/2/3 315/2/3 321/2/3
f 323/2/3 311/2/3 316/2/3
f 324/2/3 311/2/3 323/2/3
f 325/2/3 311/2/3 324/2/3
f 326/2/3 311/2/3 325/2/3
f 327/1/3 318/1/3 317/1/3
f 327/2/3 317/2/3 312/2/3
f 328/1/3 318/1/3 327/1/3
f 329/2/3 323/2/3 316/2/3
f 329/1/3 324/1/3 323/1/3
f 330/2/3 325/2/3 324/2/3
f 330/1/3 324/1/3 329/1/3
f 331/1/3 326/1/3 325/1/3
f 331/2/3 325/2/3 330/2/3
f 332/2/3 311/2/3 326/2/3
f 332/1/3 326/1/3 331/1/3
f 333/2/3 327/2/3 312/2/3
f 334/2/3 327/2/3 333/2/3
f 335/2/3 321/2/3 320/2/3
f 336/2/3 321/2/3 335/2/3
f 337/2/3 315/2/3 322/2/3
f 338/2/3 315/2/3 337/2/3
f 339/2/3 329/2/3 316/2/3
f 340/2/3 329/2/3 339/2/3
f 341/2/3 331/2/3 330/2/3
f 342/2/3 331/2/3 341/2/3
f 343/2/3 311/2/3 332/2/3
f 344/2/3 311/2/3 343/2/3
f 357/1/3 352/1/3 351/1/3
f 358/1/3 352/1/3 357/1/3
f 359/1/3 354/1/3 353/1/3
f 360/1/3 354/1/3 359/1/3
f 362/2/3 356/2/3 355/2/3
f 363/2/3 356/2/3 362/2/3
f 365/2/3 346/2/3 345/2/3
f 366/2/3 346/2/3 365/2/3
f 367/1/3 348/1/3 347/1/3
f 368/1/3 348/1/3 367/1/3
f 369/2/3 365/2/3 364/2/3
f 370/2/3 365/2/3 369/2/3
f 371/1/3 350/1/3 349/1/3
f 372/1/3 350/1/3 371/1/3
f 373/1/3 362/1/3 361/1/3
f 374/1/3 362/1/3 373/1/3
f 381/2/3 378/2/3 377/2/3
f 382/2/3 378/2/3 381/2/3
f 390/1/3 376/1/3 375/1/3
f 391/1/3 376/1/3 390/1/3
f 393/2/3 383/2/3 382/2/3
f 394/2/3 383/2/3 393/2/3
f 395/1/3 385/1/3 384/1/3
f 396/1/3 385/1/3 395/1/3
f 397/1/3 380/1/3 379/1/3
f 398/1/3 380/1/3 397/1/3
f 399/1/3 387/1/3 386/1/3
f 400/1/3 387/1/3 399/1/3
f 401/1/3 389/1/3 388/1/3
f 402/1/3 389/1/3 401/1/3
f 403/2/3 392/2/3 391/2/3
f 404/2/3 392/2/3 403/2/3
f 407/1/3 406/1/3 405/1/3
f 408/1/3 406/1/3 407/1/3
f 411/1/3 410/1/3 409/1/3
f 412/1/3 410/1/3 411/1/3
f 415/1/3 414/1/3 413/1/3
f 416/1/3 414/1/3 415/1/3
f 419/2/3 418/2/3 417/2/3
f 420/2/3 418/2/3 419/2/3
f 423/2/3 422/2/3 421/2/3
f 424/2/3 422/2/3 423/2/3
f 427/2/3 426/2/3 425/2/3
f 428/2/3 426/2/3 427/2/3
f 431/2/3 430/2/3 429/2/3
f 432/2/3 430/2/3 431/2/3
f 435/1/3 434/1/3 433/1/3
f 436/1/3 434/1/3 435/1/3
f 439/1/3 438/1/3 437/1/3
f 440/1/3 438/1/3 439/1/3
f 441/2/4 442/2/4 443/2/4
f 443/2/4 442/2/4 444/2/4
f 445/2/4 446/2/4 447/2/4
f 447/2/4 446/2/4 448/2/4
f 449/2/4 450/2/4 451/2/4
f 451/2/4 450/2/4 452/2/4
f 453/2/4 454/2/4 455/2/4
f 455/2/4 454/2/4 456/2/4
f 457/1/4 458/1/4 459/1/4
f 459/1/4 458/1/4 460/1/4
f 461/1/4 462/1/4 463/1/4
f 463/1/4 462/1/4 464/1/4
f 465/1/4 466/1/4 467/1/4
f 467/1/4 466/1/4 468/1/4
f 468/1/4 466/1/4 469/1/4
f 470/1/4 471/1/4 472/1/4
f 472/1/4 471/1/4 473/1/4
f 474/1/4 475/1/4 479/1/4
f 479/1/4 475/1/4 480/1/4
f 477/1/4 478/1/4 481/1/4
f 476/1/4 477/1/4 481/1/4
f 481/1/4 478/1/4 482/1/4
f 483/1/4 484/1/4 486/1/4
f 486/1/4 484/1/4 487/1/4
f 487/1/4 484/1/4 488/1/4
f 485/1/4 486/1/4 491/1/4
f 486/1/4 487/1/4 491/1/4
f 491/1/4 487/1/4 492/1/4
f 493/1/4 494/1/4 495/1/4
f 495/1/4 494/1/4 496/1/4
f 489/2/4 490/2/4 499/2/4
f 499/2/4 490/2/4 500/2/4
f 497/1/4 498/1/4 503/1/4
f 503/1/4 498/1/4 504/1/4
f 501/1/4 502/1/4 505/1/4
f 505/1/4 502/1/4 506/1/4
f 506/1/4 502/1/4 507/1/4
f 507/1/4 508/1/4 509/1/4
f 506/1/4 507/1/4 509/1/4
f 509/1/4 508/1/4 510/1/4
f 511/2/4 512/2/4 515/2/4
f 513/2/4 514/2/4 516/2/4
f 516/2/4 514/2/4 517/2/4
f 515/2/4 516/2/4 517/2/4
f 515/2/4 517/2/4 519/2/4
f 517/1/4 518/1/4 519/1/4
f 519/1/4 518/1/4 520/1/4
f 515/2/4 519/2/4 521/2/4
f 519/2/4 520/2/4 521/2/4
f 521/2/4 520/2/4 522/2/4
f 515/2/4 521/2/4 523/2/4
f 521/1/4 522/1/4 523/1/4
f 523/1/4 522/1/4 524/1/4
f 511/2/4 515/2/4 525/2/4
f 515/2/4 523/2/4 525/2/4
f 525/2/4 523/2/4 526/2/4
f 511/2/4 525/2/4 527/2/4
f 527/2/4 525/2/4 528/2/4
f 526/2/4 523/2/4 529/2/4
f 529/2/4 523/2/4 530/2/4
f 534/2/5 532/2/5 531/2/5
f 535/2/5 532/2/5 534/2/5
f 537/2/5 534/2/5 533/2/5
f 537/2/5 536/2/5 535/2/5
f 537/2/5 535/2/5 534/2/5
f 538/2/5 536/2/5 537/2/5
f 544/2/5 540/2/5 539/2/5
f 545/2/5 540/2/5 544/2/5
f 546/2/5 542/2/5 541/2/5
f 547/2/5 542/2/5 546/2/5
f 549/2/5 544/2/5 543/2/5
f 550/2/5 544/2/5 549/2/5
f 551/2/5 548/2/5 547/2/5
f 552/2/5 548/2/5 551/2/5
f 553/1/5 550/1/5 549/1/5
f 554/2/5 544/2/5 550/2/5
f 554/1/5 550/1/5 553/1/5
f 555/2/5 551/2/5 547/2/5
f 555/1/5 552/1/5 551/1/5
f 556/1/5 552/1/5 555/1/5
f 557/2/5 544/2/5 554/2/5
f 558/2/5 555/2/5 547/2/5
f 559/2/5 557/2/5 554/2/5
f 559/2/5 558/2/5 557/2/5
f 560/2/5 555/2/5 558/2/5
f 560/2/5 558/2/5 559/2/5
f 565/2/5 562/2/5 561/2/5
f 566/2/5 562/2/5 565/2/5
f 567/2/5 564/2/5 563/2/5
f 568/2/5 564/2/5 567/2/5
f 571/2/5 570/2/5 569/2/5
f 572/2/5 570/2/5 571/2/5
f 577/1/5 574/1/5 573/1/5
f 578/1/5 574/1/5 577/1/5
f 579/1/5 576/1/5 575/1/5
f 580/1/5 576/1/5 579/1/5
f 585/2/5 582/2/5 581/2/5
f 586/2/5 582/2/5 585/2/5
f 587/2/5 584/2/5 583/2/5
f 588/2/5 584/2/5 587/2/5
f 593/2/5 590/2/5 589/2/5
f 594/2/5 590/2/5 593/2/5
f 595/2/5 592/2/5 591/2/5
f 596/2/5 592/2/5 595/2/5
f 601/2/5 598/2/5 597/2/5
f 602/2/5 598/2/5 601/2/5
f 603/2/5 600/2/5 599/2/5
f 604/2/5 600/2/5 603/2/5
f 609/2/5 606/2/5 605/2/5
f 610/2/5 606/2/5 609/2/5
f 611/2/5 608/2/5 607/2/5
f 612/2/5 608/2/5 611/2/5
f 617/2/5 614/2/5 613/2/5
f 618/2/5 614/2/5 617/2/5
f 619/2/5 616/2/5 615/2/5
f 620/2/5 616/2/5 619/2/5
f 625/2/5 622/2/5 621/2/5
f 626/2/5 622/2/5 625/2/5
f 627/2/5 624/2/5 623/2/5
f 628/2/5 624/2/5 627/2/5
f 633/2/5 630/2/5 629/2/5
f 634/2/5 630/2/5 633/2/5
f 635/2/5 632/2/5 631/2/5
f 636/2/5 632/2/5 635/2/5
f 642/2/5 638/2/5 637/2/5
f 643/2/5 638/2/5 642/2/5
f 644/2/5 640/2/5 639/2/5
f 645/2/5 640/2/5 644/2/5
f 647/2/5 642/2/5 641/2/5
f 648/2/5 642/2/5 647/2/5
f 649/2/5 646/2/5 645/2/5
f 650/2/5 646/2/5 649/2/5
f 651/2/6 652/2/6 653/2/6
f 653/2/6 652/2/6 654/2/6
f 655/2/6 656/2/6 659/2/6
f 659/2/6 656/2/6 660/2/6
f 657/2/6 658/2/6 661/2/6
f 661/2/6 658/2/6 662/2/6
f 663/2/6 664/2/6 667/2/6
f 667/2/6 664/2/6 668/2/6
f 665/2/6 666/2/6 669/2/6
f 669/2/6 666/2/6 670/2/6
f 671/2/6 672/2/6 675/2/6
f 675/2/6 672/2/6 676/2/6
f 673/2/6 674/2/6 677/2/6
f 677/2/6 674/2/6 678/2/6
f 679/2/6 680/2/6 683/2/6
f 683/2/6 680/2/6 684/2/6
f 681/2/6 682/2/6 685/2/6
f 685/2/6 682/2/6 686/2/6
f 687/2/6 688/2/6 691/2/6
f 691/2/6 688/2/6 692/2/6
f 689/2/6 690/2/6 693/2/6
f 693/2/6 690/2/6 694/2/6
f 695/2/6 696/2/6 699/2/6
f 699/2/6 696/2/6 700/2/6
f 697/2/6 698/2/6 701/2/6
f 701/2/6 698/2/6 702/2/6
f 703/2/6 704/2/6 707/2/6
f 707/2/6 704/2/6 708/2/6
f 705/2/6 706/2/6 709/2/6
f 709/2/6 706/2/6 710/2/6
f 711/2/6 712/2/6 715/2/6
f 715/2/6 712/2/6 716/2/6
f 713/2/6 714/2/6 717/2/6
f 717/2/6 714/2/6 718/2/6
f 711/2/6 715/2/6 719/2/6
f 719/2/6 715/2/6 720/2/6
f 718/2/6 714/2/6 721/2/6
f 721/2/6 714/2/6 722/2/6
f 723/2/6 724/2/6 727/2/6
f 727/2/6 724/2/6 728/2/6
f 725/2/6 726/2/6 731/2/6
f 731/2/6 726/2/6 732/2/6
f 727/1/6 728/1/6 733/1/6
f 728/2/6 729/2/6 734/2/6
f 733/1/6 728/1/6 734/1/6
f 734/2/6 729/2/6 735/2/6
f 730/2/6 731/2/6 738/2/6
f 731/1/6 732/1/6 739/1/6
f 738/2/6 731/2/6 739/2/6
f 739/1/6 732/1/6 740/1/6
f 735/2/6 736/2/6 741/2/6
f 734/2/6 735/2/6 741/2/6
f 741/2/6 736/2/6 742/2/6
f 737/2/6 738/2/6 743/2/6
f 738/2/6 739/2/6 743/2/6
f 743/2/6 739/2/6 744/2/6
f 745/2/6 746/2/6 750/2/6
f 747/2/6 748/2/6 751/2/6
f 749/2/6 750/2/6 753/2/6
f 750/2/6 746/2/6 754/2/6
f 753/2/6 750/2/6 754/2/6
f 751/2/6 752/2/6 755/2/6
f 747/2/6 751/2/6 755/2/6
f 755/2/6 752/2/6 756/2/6
f 757/1/6 758/1/6 762/1/6
f 758/2/6 759/2/6 763/2/6
f 762/1/6 758/1/6 763/1/6
f 759/1/6 760/1/6 764/1/6
f 763/2/6 759/2/6 764/2/6
f 764/1/6 760/1/6 765/1/6
f 761/1/6 762/1/6 767/1/6
f 762/2/6 763/2/6 768/2/6
f 767/1/6 762/1/6 768/1/6
f 763/2/6 764/2/6 768/2/6
f 764/2/6 765/2/6 768/2/6
f 765/1/6 766/1/6 769/1/6
f 768/2/6 765/2/6 769/2/6
f 769/1/6 766/1/6 770/1/6
f 767/2/6 768/2/6 771/2/6
f 768/2/6 769/2/6 771/2/6
f 769/2/6 770/2/6 771/2/6
f 771/2/6 770/2/6 772/2/6
f 772/2/6 770/2/6 773/2/6
f 773/2/6 770/2/6 774/2/6
f 771/1/6 772/1/6 775/1/6
f 772/2/6 773/2/6 776/2/6
f 775/1/6 772/1/6 776/1/6
f 776/2/6 773/2/6 777/2/6
f 777/2/6 773/2/6 778/2/6
f 773/1/6 774/1/6 779/1/6
f 778/2/6 773/2/6 779/2/6
f 779/1/6 774/1/6 780/1/6
f 776/1/6 777/1/6 781/1/6
f 777/2/6 778/2/6 782/2/6
f 781/1/6 777/1/6 782/1/6
f 782/2/6 778/2/6 783/2/6
f 783/2/6 778/2/6 784/2/6
f 778/1/6 779/1/6 785/1/6
f 784/2/6 778/2/6 785/2/6
f 785/1/6 779/1/6 786/1/6
f 782/1/6 783/1/6 787/1/6
f 783/2/6 784/2/6 788/2/6
f 787/1/6 783/1/6 788/1/6
f 788/2/6 784/2/6 789/2/6
f 789/2/6 784/2/6 790/2/6
f 784/1/6 785/1/6 791/1/6
f 790/2/6 784/2/6 791/2/6
f 791/1/6 785/1/6 792/1/6
f 788/1/6 789/1/6 793/1/6
f 789/2/6 790/2/6 794/2/6
f 793/1/6 789/1/6 794/1/6
f 790/1/6 791/1/6 795/1/6
f 794/2/6 790/2/6 795/2/6
f 795/1/6 791/1/6 796/1/6
