# MagicaVoxel @ Ephtracy

# group
g female_mecha_forearm

# material
mtllib female_mecha_forearm.mtl
usemtl palette

# normals
vn -1 0 0
vn 1 0 0
vn 0 0 1
vn 0 0 -1
vn 0 -1 0
vn 0 1 0

# texcoords
vt 0.958984 0.5
vt 0.970703 0.5

# verts
v -4 1 3
v -4 1 -3
v -4 2 3
v -4 2 2
v -4 2 1
v -4 3 -1
v -4 3 -2
v -4 4 3
v -4 4 2
v -4 4 1
v -4 5 1
v -4 5 -1
v -4 6 -1
v -4 6 -2
v -4 7 1
v -4 7 -1
v -4 9 -0
v -4 9 -1
v -4 15 -0
v -4 15 -1
v -4 16 2
v -4 16 -0
v -4 18 2
v -4 18 -0
v -4 19 3
v -4 19 -3
v -3 0 3
v -3 0 -3
v -3 1 4
v -3 1 3
v -3 1 -3
v -3 1 -4
v -3 2 4
v -3 2 3
v -3 4 4
v -3 4 3
v -3 16 2
v -3 16 -0
v -3 18 2
v -3 18 -0
v -3 19 4
v -3 19 3
v -3 19 2
v -3 19 -2
v -3 19 -3
v -3 19 -4
v -3 20 2
v -3 20 -2
v -2 2 4
v -2 2 2
v -2 3 -1
v -2 3 -2
v -2 4 4
v -2 4 2
v -2 5 1
v -2 5 -1
v -2 6 -1
v -2 6 -2
v -2 7 1
v -2 7 -1
v -2 9 -0
v -2 9 -1
v -2 15 -0
v -2 15 -1
v -2 19 3
v -2 19 2
v -2 19 -2
v -2 19 -3
v -2 20 3
v -2 20 2
v -2 20 -2
v -2 20 -3
v -1 11 4
v -1 11 3
v -1 16 4
v -1 16 3
v 1 5 4
v 1 5 3
v 1 10 4
v 1 10 3
v 2 10 4
v 2 10 3
v 2 17 4
v 2 17 3
v -2 10 4
v -2 10 3
v -2 17 4
v -2 17 3
v -1 5 4
v -1 5 3
v -1 10 4
v -1 10 3
v 1 11 4
v 1 11 3
v 1 16 4
v 1 16 3
v 2 2 4
v 2 2 2
v 2 3 -1
v 2 3 -2
v 2 4 4
v 2 4 2
v 2 5 1
v 2 5 -1
v 2 6 -1
v 2 6 -2
v 2 7 1
v 2 7 -1
v 2 9 -0
v 2 9 -1
v 2 15 -0
v 2 15 -1
v 2 19 3
v 2 19 2
v 2 19 -2
v 2 19 -3
v 2 20 3
v 2 20 2
v 2 20 -2
v 2 20 -3
v 3 0 3
v 3 0 -3
v 3 1 4
v 3 1 3
v 3 1 -3
v 3 1 -4
v 3 2 4
v 3 2 3
v 3 4 4
v 3 4 3
v 3 16 2
v 3 16 -0
v 3 18 2
v 3 18 -0
v 3 19 4
v 3 19 3
v 3 19 2
v 3 19 -2
v 3 19 -3
v 3 19 -4
v 3 20 2
v 3 20 -2
v 4 1 3
v 4 1 -3
v 4 2 3
v 4 2 2
v 4 2 1
v 4 3 -1
v 4 3 -2
v 4 4 3
v 4 4 2
v 4 4 1
v 4 5 1
v 4 5 -1
v 4 6 -1
v 4 6 -2
v 4 7 1
v 4 7 -1
v 4 9 -0
v 4 9 -1
v 4 15 -0
v 4 15 -1
v 4 16 2
v 4 16 -0
v 4 18 2
v 4 18 -0
v 4 19 3
v 4 19 -3
v -3 1 4
v -3 2 4
v -3 4 4
v -3 19 4
v -2 2 4
v -2 4 4
v -2 10 4
v -2 17 4
v -1 2 4
v -1 4 4
v -1 5 4
v -1 10 4
v -1 11 4
v -1 16 4
v 1 2 4
v 1 4 4
v 1 5 4
v 1 10 4
v 1 11 4
v 1 16 4
v 2 2 4
v 2 4 4
v 2 10 4
v 2 17 4
v 3 1 4
v 3 2 4
v 3 4 4
v 3 19 4
v -4 1 3
v -4 2 3
v -4 4 3
v -4 19 3
v -3 0 3
v -3 1 3
v -3 2 3
v -3 4 3
v -3 19 3
v -2 10 3
v -2 17 3
v -2 19 3
v -2 20 3
v -1 5 3
v -1 10 3
v -1 11 3
v -1 16 3
v 1 5 3
v 1 10 3
v 1 11 3
v 1 16 3
v 2 10 3
v 2 17 3
v 2 19 3
v 2 20 3
v 3 0 3
v 3 1 3
v 3 2 3
v 3 4 3
v 3 19 3
v 4 1 3
v 4 2 3
v 4 4 3
v 4 19 3
v -4 2 2
v -4 4 2
v -3 19 2
v -3 20 2
v -2 2 2
v -2 4 2
v -2 19 2
v -2 20 2
v 2 2 2
v 2 4 2
v 2 19 2
v 2 20 2
v 3 19 2
v 3 20 2
v 4 2 2
v 4 4 2
v -4 16 -0
v -4 18 -0
v -3 16 -0
v -3 18 -0
v 3 16 -0
v 3 18 -0
v 4 16 -0
v 4 18 -0
v -4 6 -1
v -4 7 -1
v -4 9 -1
v -4 15 -1
v -2 6 -1
v -2 7 -1
v -2 9 -1
v -2 15 -1
v 2 6 -1
v 2 7 -1
v 2 9 -1
v 2 15 -1
v 4 6 -1
v 4 7 -1
v 4 9 -1
v 4 15 -1
v -4 3 -2
v -4 6 -2
v -2 3 -2
v -2 6 -2
v 2 3 -2
v 2 6 -2
v 4 3 -2
v 4 6 -2
v -4 16 2
v -4 18 2
v -3 16 2
v -3 18 2
v 3 16 2
v 3 18 2
v 4 16 2
v 4 18 2
v -4 5 1
v -4 7 1
v -2 5 1
v -2 7 1
v 2 5 1
v 2 7 1
v 4 5 1
v 4 7 1
v -4 9 -0
v -4 15 -0
v -2 9 -0
v -2 15 -0
v 2 9 -0
v 2 15 -0
v 4 9 -0
v 4 15 -0
v -4 3 -1
v -4 5 -1
v -2 3 -1
v -2 5 -1
v 2 3 -1
v 2 5 -1
v 4 3 -1
v 4 5 -1
v -3 19 -2
v -3 20 -2
v -2 19 -2
v -2 20 -2
v 2 19 -2
v 2 20 -2
v 3 19 -2
v 3 20 -2
v -4 1 -3
v -4 19 -3
v -3 0 -3
v -3 1 -3
v -3 19 -3
v -2 19 -3
v -2 20 -3
v 2 19 -3
v 2 20 -3
v 3 0 -3
v 3 1 -3
v 3 19 -3
v 4 1 -3
v 4 19 -3
v -3 1 -4
v -3 19 -4
v 3 1 -4
v 3 19 -4
v -3 0 3
v 3 0 3
v -3 0 -3
v 3 0 -3
v -3 1 4
v 3 1 4
v -4 1 3
v -3 1 3
v 3 1 3
v 4 1 3
v -4 1 -3
v -3 1 -3
v 3 1 -3
v 4 1 -3
v -3 1 -4
v 3 1 -4
v -3 4 4
v -2 4 4
v 2 4 4
v 3 4 4
v -4 4 3
v -3 4 3
v 3 4 3
v 4 4 3
v -4 4 2
v -2 4 2
v 2 4 2
v 4 4 2
v -4 6 -1
v -2 6 -1
v 2 6 -1
v 4 6 -1
v -4 6 -2
v -2 6 -2
v 2 6 -2
v 4 6 -2
v -4 7 1
v -2 7 1
v 2 7 1
v 4 7 1
v -4 7 -1
v -2 7 -1
v 2 7 -1
v 4 7 -1
v -1 11 4
v 1 11 4
v -1 11 3
v 1 11 3
v -4 15 -0
v -2 15 -0
v 2 15 -0
v 4 15 -0
v -4 15 -1
v -2 15 -1
v 2 15 -1
v 4 15 -1
v -2 17 4
v 2 17 4
v -2 17 3
v 2 17 3
v -4 18 2
v -3 18 2
v 3 18 2
v 4 18 2
v -4 18 -0
v -3 18 -0
v 3 18 -0
v 4 18 -0
v -3 2 4
v -2 2 4
v 2 2 4
v 3 2 4
v -4 2 3
v -3 2 3
v 3 2 3
v 4 2 3
v -4 2 2
v -2 2 2
v 2 2 2
v 4 2 2
v -4 3 -1
v -2 3 -1
v 2 3 -1
v 4 3 -1
v -4 3 -2
v -2 3 -2
v 2 3 -2
v 4 3 -2
v -1 5 4
v 1 5 4
v -1 5 3
v 1 5 3
v -4 5 1
v -2 5 1
v 2 5 1
v 4 5 1
v -4 5 -1
v -2 5 -1
v 2 5 -1
v 4 5 -1
v -4 9 -0
v -2 9 -0
v 2 9 -0
v 4 9 -0
v -4 9 -1
v -2 9 -1
v 2 9 -1
v 4 9 -1
v -2 10 4
v -1 10 4
v 1 10 4
v 2 10 4
v -2 10 3
v -1 10 3
v 1 10 3
v 2 10 3
v -1 16 4
v 1 16 4
v -1 16 3
v 1 16 3
v -4 16 2
v -3 16 2
v 3 16 2
v 4 16 2
v -4 16 -0
v -3 16 -0
v 3 16 -0
v 4 16 -0
v -3 19 4
v 3 19 4
v -4 19 3
v -3 19 3
v -2 19 3
v 2 19 3
v 3 19 3
v 4 19 3
v -3 19 2
v -2 19 2
v 2 19 2
v 3 19 2
v -3 19 -2
v -2 19 -2
v 2 19 -2
v 3 19 -2
v -4 19 -3
v -3 19 -3
v -2 19 -3
v 2 19 -3
v 3 19 -3
v 4 19 -3
v -3 19 -4
v 3 19 -4
v -2 20 3
v 2 20 3
v -3 20 2
v -2 20 2
v 2 20 2
v 3 20 2
v -3 20 -2
v -2 20 -2
v 2 20 -2
v 3 20 -2
v -2 20 -3
v 2 20 -3

# faces
f 3/2/1 2/2/1 1/2/1
f 4/2/1 2/2/1 3/2/1
f 5/2/1 2/2/1 4/2/1
f 6/2/1 2/2/1 5/2/1
f 7/2/1 2/2/1 6/2/1
f 9/1/1 5/1/1 4/1/1
f 10/2/1 6/2/1 5/2/1
f 10/1/1 5/1/1 9/1/1
f 11/2/1 9/2/1 8/2/1
f 11/2/1 6/2/1 10/2/1
f 11/2/1 10/2/1 9/2/1
f 12/2/1 6/2/1 11/2/1
f 14/2/1 2/2/1 7/2/1
f 15/2/1 11/2/1 8/2/1
f 16/2/1 14/2/1 13/2/1
f 17/2/1 16/2/1 15/2/1
f 18/2/1 14/2/1 16/2/1
f 18/2/1 16/2/1 17/2/1
f 19/2/1 17/2/1 15/2/1
f 20/2/1 14/2/1 18/2/1
f 21/2/1 15/2/1 8/2/1
f 21/2/1 20/2/1 19/2/1
f 21/2/1 19/2/1 15/2/1
f 22/2/1 20/2/1 21/2/1
f 23/2/1 21/2/1 8/2/1
f 24/2/1 20/2/1 22/2/1
f 25/2/1 23/2/1 8/2/1
f 25/2/1 24/2/1 23/2/1
f 26/2/1 14/2/1 20/2/1
f 26/2/1 24/2/1 25/2/1
f 26/2/1 2/2/1 14/2/1
f 26/2/1 20/2/1 24/2/1
f 30/2/1 28/2/1 27/2/1
f 31/2/1 28/2/1 30/2/1
f 33/2/1 30/2/1 29/2/1
f 34/2/1 30/2/1 33/2/1
f 39/1/1 38/1/1 37/1/1
f 40/1/1 38/1/1 39/1/1
f 41/2/1 36/2/1 35/2/1
f 42/2/1 36/2/1 41/2/1
f 45/2/1 32/2/1 31/2/1
f 46/2/1 32/2/1 45/2/1
f 47/2/1 44/2/1 43/2/1
f 48/2/1 44/2/1 47/2/1
f 53/1/1 50/1/1 49/1/1
f 54/1/1 50/1/1 53/1/1
f 56/1/1 52/1/1 51/1/1
f 57/1/1 52/1/1 56/1/1
f 57/1/1 56/1/1 55/1/1
f 58/1/1 52/1/1 57/1/1
f 59/1/1 57/1/1 55/1/1
f 60/1/1 57/1/1 59/1/1
f 63/1/1 62/1/1 61/1/1
f 64/1/1 62/1/1 63/1/1
f 69/2/1 66/2/1 65/2/1
f 70/2/1 66/2/1 69/2/1
f 71/2/1 68/2/1 67/2/1
f 72/2/1 68/2/1 71/2/1
f 75/2/1 74/2/1 73/2/1
f 76/2/1 74/2/1 75/2/1
f 79/2/1 78/2/1 77/2/1
f 80/2/1 78/2/1 79/2/1
f 83/2/1 82/2/1 81/2/1
f 84/2/1 82/2/1 83/2/1
f 85/2/2 86/2/2 87/2/2
f 87/2/2 86/2/2 88/2/2
f 89/2/2 90/2/2 91/2/2
f 91/2/2 90/2/2 92/2/2
f 93/2/2 94/2/2 95/2/2
f 95/2/2 94/2/2 96/2/2
f 97/1/2 98/1/2 101/1/2
f 101/1/2 98/1/2 102/1/2
f 99/1/2 100/1/2 104/1/2
f 104/1/2 100/1/2 105/1/2
f 103/1/2 104/1/2 105/1/2
f 105/1/2 100/1/2 106/1/2
f 103/1/2 105/1/2 107/1/2
f 107/1/2 105/1/2 108/1/2
f 109/1/2 110/1/2 111/1/2
f 111/1/2 110/1/2 112/1/2
f 113/2/2 114/2/2 117/2/2
f 117/2/2 114/2/2 118/2/2
f 115/2/2 116/2/2 119/2/2
f 119/2/2 116/2/2 120/2/2
f 121/2/2 122/2/2 124/2/2
f 124/2/2 122/2/2 125/2/2
f 123/2/2 124/2/2 127/2/2
f 127/2/2 124/2/2 128/2/2
f 131/1/2 132/1/2 133/1/2
f 133/1/2 132/1/2 134/1/2
f 129/2/2 130/2/2 135/2/2
f 135/2/2 130/2/2 136/2/2
f 125/2/2 126/2/2 139/2/2
f 139/2/2 126/2/2 140/2/2
f 137/2/2 138/2/2 141/2/2
f 141/2/2 138/2/2 142/2/2
f 143/2/2 144/2/2 145/2/2
f 145/2/2 144/2/2 146/2/2
f 146/2/2 144/2/2 147/2/2
f 147/2/2 144/2/2 148/2/2
f 148/2/2 144/2/2 149/2/2
f 146/1/2 147/1/2 151/1/2
f 147/2/2 148/2/2 152/2/2
f 151/1/2 147/1/2 152/1/2
f 150/2/2 151/2/2 153/2/2
f 152/2/2 148/2/2 153/2/2
f 151/2/2 152/2/2 153/2/2
f 153/2/2 148/2/2 154/2/2
f 149/2/2 144/2/2 156/2/2
f 150/2/2 153/2/2 157/2/2
f 155/2/2 156/2/2 158/2/2
f 157/2/2 158/2/2 159/2/2
f 158/2/2 156/2/2 160/2/2
f 159/2/2 158/2/2 160/2/2
f 157/2/2 159/2/2 161/2/2
f 160/2/2 156/2/2 162/2/2
f 150/2/2 157/2/2 163/2/2
f 161/2/2 162/2/2 163/2/2
f 157/2/2 161/2/2 163/2/2
f 163/2/2 162/2/2 164/2/2
f 150/2/2 163/2/2 165/2/2
f 164/2/2 162/2/2 166/2/2
f 150/2/2 165/2/2 167/2/2
f 165/2/2 166/2/2 167/2/2
f 162/2/2 156/2/2 168/2/2
f 167/2/2 166/2/2 168/2/2
f 156/2/2 144/2/2 168/2/2
f 166/2/2 162/2/2 168/2/2
f 173/2/3 170/2/3 169/2/3
f 174/2/3 172/2/3 171/2/3
f 175/2/3 172/2/3 174/2/3
f 176/2/3 172/2/3 175/2/3
f 177/2/3 173/2/3 169/2/3
f 177/1/3 174/1/3 173/1/3
f 178/2/3 175/2/3 174/2/3
f 178/1/3 174/1/3 177/1/3
f 179/2/3 175/2/3 178/2/3
f 180/2/3 175/2/3 179/2/3
f 183/2/3 177/2/3 169/2/3
f 183/2/3 178/2/3 177/2/3
f 183/2/3 179/2/3 178/2/3
f 184/2/3 179/2/3 183/2/3
f 185/2/3 179/2/3 184/2/3
f 187/2/3 182/2/3 181/2/3
f 188/2/3 182/2/3 187/2/3
f 189/2/3 183/2/3 169/2/3
f 189/1/3 184/1/3 183/1/3
f 190/2/3 186/2/3 185/2/3
f 190/1/3 184/1/3 189/1/3
f 190/2/3 185/2/3 184/2/3
f 191/2/3 186/2/3 190/2/3
f 192/2/3 172/2/3 176/2/3
f 193/2/3 189/2/3 169/2/3
f 194/2/3 189/2/3 193/2/3
f 195/2/3 191/2/3 190/2/3
f 195/2/3 192/2/3 191/2/3
f 196/2/3 172/2/3 192/2/3
f 196/2/3 192/2/3 195/2/3
f 202/2/3 198/2/3 197/2/3
f 203/2/3 198/2/3 202/2/3
f 204/2/3 200/2/3 199/2/3
f 205/2/3 200/2/3 204/2/3
f 211/1/3 207/1/3 206/1/3
f 212/1/3 207/1/3 211/1/3
f 213/1/3 207/1/3 212/1/3
f 214/1/3 211/1/3 210/1/3
f 214/1/3 212/1/3 211/1/3
f 215/1/3 212/1/3 214/1/3
f 216/1/3 212/1/3 215/1/3
f 217/1/3 207/1/3 213/1/3
f 218/1/3 216/1/3 215/1/3
f 218/1/3 217/1/3 216/1/3
f 219/1/3 207/1/3 217/1/3
f 219/1/3 217/1/3 218/1/3
f 220/2/3 209/2/3 208/2/3
f 221/2/3 209/2/3 220/2/3
f 222/2/3 202/2/3 201/2/3
f 223/2/3 202/2/3 222/2/3
f 227/2/3 224/2/3 223/2/3
f 228/2/3 224/2/3 227/2/3
f 229/2/3 226/2/3 225/2/3
f 230/2/3 226/2/3 229/2/3
f 235/1/3 232/1/3 231/1/3
f 236/1/3 232/1/3 235/1/3
f 237/2/3 234/2/3 233/2/3
f 238/2/3 234/2/3 237/2/3
f 243/2/3 242/2/3 241/2/3
f 244/2/3 242/2/3 243/2/3
f 245/1/3 240/1/3 239/1/3
f 246/1/3 240/1/3 245/1/3
f 249/2/3 248/2/3 247/2/3
f 250/2/3 248/2/3 249/2/3
f 253/2/3 252/2/3 251/2/3
f 254/2/3 252/2/3 253/2/3
f 259/2/3 256/2/3 255/2/3
f 260/2/3 256/2/3 259/2/3
f 261/2/3 258/2/3 257/2/3
f 262/2/3 258/2/3 261/2/3
f 267/2/3 264/2/3 263/2/3
f 268/2/3 264/2/3 267/2/3
f 269/2/3 266/2/3 265/2/3
f 270/2/3 266/2/3 269/2/3
f 273/2/3 272/2/3 271/2/3
f 274/2/3 272/2/3 273/2/3
f 277/2/3 276/2/3 275/2/3
f 278/2/3 276/2/3 277/2/3
f 279/2/4 280/2/4 281/2/4
f 281/2/4 280/2/4 282/2/4
f 283/2/4 284/2/4 285/2/4
f 285/2/4 284/2/4 286/2/4
f 287/2/4 288/2/4 289/2/4
f 289/2/4 288/2/4 290/2/4
f 291/2/4 292/2/4 293/2/4
f 293/2/4 292/2/4 294/2/4
f 295/2/4 296/2/4 297/2/4
f 297/2/4 296/2/4 298/2/4
f 299/2/4 300/2/4 301/2/4
f 301/2/4 300/2/4 302/2/4
f 303/2/4 304/2/4 305/2/4
f 305/2/4 304/2/4 306/2/4
f 307/2/4 308/2/4 309/2/4
f 309/2/4 308/2/4 310/2/4
f 311/2/4 312/2/4 313/2/4
f 313/2/4 312/2/4 314/2/4
f 315/2/4 316/2/4 317/2/4
f 317/2/4 316/2/4 318/2/4
f 319/2/4 320/2/4 322/2/4
f 322/2/4 320/2/4 323/2/4
f 324/2/4 325/2/4 326/2/4
f 326/2/4 325/2/4 327/2/4
f 321/2/4 322/2/4 328/2/4
f 328/2/4 322/2/4 329/2/4
f 329/2/4 330/2/4 331/2/4
f 331/2/4 330/2/4 332/2/4
f 333/2/4 334/2/4 335/2/4
f 335/2/4 334/2/4 336/2/4
f 339/2/5 338/2/5 337/2/5
f 340/2/5 338/2/5 339/2/5
f 344/2/5 342/2/5 341/2/5
f 345/2/5 342/2/5 344/2/5
f 347/2/5 344/2/5 343/2/5
f 348/2/5 344/2/5 347/2/5
f 349/2/5 346/2/5 345/2/5
f 350/2/5 346/2/5 349/2/5
f 351/2/5 349/2/5 348/2/5
f 352/2/5 349/2/5 351/2/5
f 358/2/5 354/2/5 353/2/5
f 359/2/5 356/2/5 355/2/5
f 361/2/5 358/2/5 357/2/5
f 362/2/5 354/2/5 358/2/5
f 362/2/5 358/2/5 361/2/5
f 363/2/5 360/2/5 359/2/5
f 363/2/5 359/2/5 355/2/5
f 364/2/5 360/2/5 363/2/5
f 369/2/5 366/2/5 365/2/5
f 370/2/5 366/2/5 369/2/5
f 371/2/5 368/2/5 367/2/5
f 372/2/5 368/2/5 371/2/5
f 377/2/5 374/2/5 373/2/5
f 378/2/5 374/2/5 377/2/5
f 379/2/5 376/2/5 375/2/5
f 380/2/5 376/2/5 379/2/5
f 383/2/5 382/2/5 381/2/5
f 384/2/5 382/2/5 383/2/5
f 389/2/5 386/2/5 385/2/5
f 390/2/5 386/2/5 389/2/5
f 391/2/5 388/2/5 387/2/5
f 392/2/5 388/2/5 391/2/5
f 395/2/5 394/2/5 393/2/5
f 396/2/5 394/2/5 395/2/5
f 401/2/5 398/2/5 397/2/5
f 402/2/5 398/2/5 401/2/5
f 403/2/5 400/2/5 399/2/5
f 404/2/5 400/2/5 403/2/5
f 405/2/6 406/2/6 410/2/6
f 407/2/6 408/2/6 411/2/6
f 409/2/6 410/2/6 413/2/6
f 410/2/6 406/2/6 414/2/6
f 413/2/6 410/2/6 414/2/6
f 411/2/6 412/2/6 415/2/6
f 407/2/6 411/2/6 415/2/6
f 415/2/6 412/2/6 416/2/6
f 417/2/6 418/2/6 421/2/6
f 421/2/6 418/2/6 422/2/6
f 419/2/6 420/2/6 423/2/6
f 423/2/6 420/2/6 424/2/6
f 425/2/6 426/2/6 427/2/6
f 427/2/6 426/2/6 428/2/6
f 429/2/6 430/2/6 433/2/6
f 433/2/6 430/2/6 434/2/6
f 431/2/6 432/2/6 435/2/6
f 435/2/6 432/2/6 436/2/6
f 437/2/6 438/2/6 441/2/6
f 441/2/6 438/2/6 442/2/6
f 439/2/6 440/2/6 443/2/6
f 443/2/6 440/2/6 444/2/6
f 445/2/6 446/2/6 449/2/6
f 449/2/6 446/2/6 450/2/6
f 447/2/6 448/2/6 451/2/6
f 451/2/6 448/2/6 452/2/6
f 453/2/6 454/2/6 455/2/6
f 455/2/6 454/2/6 456/2/6
f 457/2/6 458/2/6 461/2/6
f 461/2/6 458/2/6 462/2/6
f 459/2/6 460/2/6 463/2/6
f 463/2/6 460/2/6 464/2/6
f 465/2/6 466/2/6 468/2/6
f 468/2/6 466/2/6 469/2/6
f 469/2/6 466/2/6 470/2/6
f 470/2/6 466/2/6 471/2/6
f 467/2/6 468/2/6 473/2/6
f 468/2/6 469/2/6 473/2/6
f 473/2/6 469/2/6 474/2/6
f 471/2/6 472/2/6 475/2/6
f 470/2/6 471/2/6 475/2/6
f 475/2/6 472/2/6 476/2/6
f 467/2/6 473/2/6 477/2/6
f 476/2/6 472/2/6 480/2/6
f 477/2/6 478/2/6 481/2/6
f 467/2/6 477/2/6 481/2/6
f 481/2/6 478/2/6 482/2/6
f 482/2/6 478/2/6 483/2/6
f 479/2/6 480/2/6 484/2/6
f 480/2/6 472/2/6 485/2/6
f 484/2/6 480/2/6 485/2/6
f 485/2/6 472/2/6 486/2/6
f 482/2/6 483/2/6 487/2/6
f 483/2/6 484/2/6 487/2/6
f 484/2/6 485/2/6 487/2/6
f 487/2/6 485/2/6 488/2/6
f 489/2/6 490/2/6 492/2/6
f 492/2/6 490/2/6 493/2/6
f 491/2/6 492/2/6 495/2/6
f 493/2/6 494/2/6 495/2/6
f 492/2/6 493/2/6 495/2/6
f 495/2/6 494/2/6 496/2/6
f 496/2/6 494/2/6 497/2/6
f 497/2/6 494/2/6 498/2/6
f 496/2/6 497/2/6 499/2/6
f 499/2/6 497/2/6 500/2/6
